Coordinates
version=1
nRows=60
nColumns=12
inDegrees=yes

Units are S.I. units (second, meters, Newtons, ...)
Angles are in degrees

endheader
time	SC_y	SC_z	SC_x	AC_y	AC_z	AC_x	GH_y	GH_z	GH_yy	EL_x	PS_y
       0.0              -20.02          18.54          75.86          48.56         -7.128         -13.32         -36.13          36.59         -43.21           96.8          54.21
   0.01639              -20.02          18.55          75.86          48.56         -7.126         -13.32         -36.14          36.59         -43.22           96.8           54.2
   0.03278              -20.03          18.55          75.85          48.56         -7.124         -13.31         -36.16           36.6         -43.23          96.81           54.2
   0.04917              -20.03          18.55          75.85          48.55         -7.121         -13.31         -36.17          36.61         -43.25          96.81          54.19
   0.06556              -20.04          18.55          75.84          48.55         -7.119         -13.31         -36.18          36.61         -43.26          96.81          54.19
   0.08195              -20.05          18.55          75.84          48.55         -7.116         -13.31          -36.2          36.62         -43.28          96.82          54.18
   0.09834              -20.06          18.55          75.83          48.55         -7.113         -13.31         -36.22          36.63         -43.29          96.82          54.18
    0.1147              -20.06          18.55          75.82          48.54          -7.11         -13.31         -36.23          36.64         -43.31          96.83          54.17
    0.1311              -20.07          18.55          75.81          48.54         -7.106         -13.31         -36.25          36.65         -43.33          96.84          54.16
    0.1475              -20.08          18.56          75.81          48.53         -7.103         -13.31         -36.27          36.66         -43.34          96.84          54.16
    0.1639              -20.09          18.56           75.8          48.53         -7.099          -13.3         -36.29          36.67         -43.37          96.85          54.15
    0.1803               -20.1          18.56          75.79          48.52         -7.095          -13.3         -36.31          36.68         -43.39          96.85          54.14
    0.1967              -20.11          18.56          75.78          48.52          -7.09          -13.3         -36.34           36.7         -43.41          96.86          54.13
    0.2131              -20.12          18.56          75.77          48.51         -7.085          -13.3         -36.36          36.71         -43.44          96.87          54.12
    0.2295              -20.14          18.57          75.75          48.51          -7.08          -13.3         -36.39          36.73         -43.46          96.88          54.11
    0.2459              -20.15          18.57          75.74           48.5         -7.074         -13.29         -36.42          36.74         -43.49          96.89           54.1
    0.2622              -20.17          18.57          75.73           48.5         -7.068         -13.29         -36.46          36.76         -43.53           96.9          54.09
    0.2786              -20.18          18.57          75.71          48.49         -7.061         -13.29         -36.49          36.78         -43.56          96.91          54.08
     0.295               -20.2          18.58           75.7          48.48         -7.054         -13.29         -36.53           36.8          -43.6          96.92          54.06
    0.3114              -20.22          18.58          75.68          48.47         -7.046         -13.28         -36.58          36.83         -43.65          96.94          54.05
    0.3278              -20.24          18.58          75.66          48.46         -7.037         -13.28         -36.63          36.85         -43.69          96.95          54.03
    0.3442              -20.27          18.59          75.63          48.45         -7.027         -13.28         -36.68          36.88         -43.74          96.97          54.01
    0.3606              -20.29          18.59          75.61          48.44         -7.016         -13.27         -36.74          36.91          -43.8          96.99          53.99
     0.377              -20.32           18.6          75.58          48.43         -7.004         -13.27          -36.8          36.95         -43.86          97.01          53.96
    0.3934              -20.36           18.6          75.55          48.41         -6.991         -13.26         -36.87          36.99         -43.93          97.03          53.94
    0.4098              -20.39          18.61          75.52          48.39         -6.976         -13.26         -36.95          37.03         -44.01          97.05          53.91
    0.4262              -20.43          18.62          75.48          48.38         -6.959         -13.25         -37.05          37.08          -44.1          97.08          53.88
    0.4425              -20.48          18.63          75.44          48.36          -6.94         -13.24         -37.15          37.13          -44.2          97.11          53.84
    0.4589              -20.53          18.64          75.39          48.33         -6.919         -13.23         -37.26          37.19         -44.31          97.15           53.8
    0.4753              -20.59          18.65          75.34          48.31         -6.895         -13.22         -37.39          37.26         -44.44          97.19          53.75
    0.4917              -20.66          18.66          75.27          48.28         -6.867         -13.21         -37.54          37.35         -44.58          97.23           53.7
    0.5081              -20.74          18.67           75.2          48.24         -6.836          -13.2         -37.71          37.44         -44.75          97.28          53.64
    0.5245              -20.83          18.69          75.12           48.2         -6.799         -13.18         -37.91          37.54         -44.94          97.35          53.57
    0.5409              -20.93          18.71          75.02          48.15         -6.757         -13.17         -38.13          37.67         -45.16          97.42          53.49
    0.5573              -21.05          18.73          74.91           48.1         -6.707         -13.15          -38.4          37.81         -45.42           97.5          53.39
    0.5737               -21.2          18.75          74.78          48.04         -6.649         -13.12         -38.72          37.98         -45.73          97.59          53.28
    0.5901              -21.37          18.79          74.62          47.96          -6.58          -13.1         -39.09          38.18          -46.1          97.71          53.14
    0.6065              -21.58          18.82          74.43          47.87         -6.496         -13.06         -39.54          38.43         -46.53          97.85          52.98
    0.6228              -21.82          18.87          74.21          47.76         -6.396         -13.02         -40.08          38.72         -47.06          98.02          52.79
    0.6392              -22.13          18.92          73.93          47.62         -6.273         -12.97         -40.74          39.08         -47.71          98.22          52.55
    0.6556               -22.5          18.99          73.58          47.46         -6.121         -12.91         -41.56          39.52         -48.51          98.47          52.25
     0.672              -22.97          19.07          73.16          47.25         -5.932         -12.83         -42.58          40.07         -49.51          98.79          51.89
    0.6884              -23.56          19.17          72.62          46.99         -5.693         -12.74         -43.87          40.76         -50.76          99.18          51.43
    0.7048               -24.3          19.31          71.93          46.65          -5.39         -12.61          -45.5          41.65         -52.35          99.68          50.84
    0.7212              -25.26          19.48          71.05          46.23         -5.002         -12.46         -47.59          42.78          -54.4          100.3          50.09
    0.7376              -26.49           19.7          69.93          45.68         -4.504         -12.26         -50.28          44.23         -57.01          101.2          49.12
     0.754              -28.05          19.98          68.49          44.98         -3.868          -12.0         -53.71          46.08         -60.36          102.2          47.89
    0.7704              -30.03          20.33          66.68           44.1         -3.069         -11.68         -58.02          48.41         -64.57          103.5          46.34
    0.7867              -32.43          20.75          64.47          43.03         -2.094         -11.28         -63.27          51.24         -69.69          105.2          44.46
    0.8031              -35.21          21.25          61.91          41.79        -0.9645         -10.83         -69.36          54.53         -75.64          107.0          42.27
    0.8195              -38.23          21.79          59.15          40.45         0.2586         -10.33         -75.95          58.09         -82.07          109.1           39.9
    0.8359              -41.24          22.32          56.38          39.11          1.482          -9.84         -82.55          61.65          -88.5          111.1          37.53
    0.8523              -44.03          22.82          53.82          37.86          2.611         -9.384         -88.63          64.94         -94.45          113.0          35.34
    0.8687              -46.43          23.25          51.62          36.79          3.586          -8.99         -93.89          67.78         -99.57          114.6          33.46
    0.8851               -48.4           23.6          49.81          35.92          4.385         -8.667          -98.2          70.11         -103.8          115.9          31.91
    0.9015              -49.97          23.88          48.37          35.22          5.021          -8.41         -101.6          71.96         -107.1          117.0          30.68
    0.9179               -51.2          24.09          47.24          34.67          5.519         -8.209         -104.3          73.41         -109.7          117.8          29.71
    0.9343              -52.16          24.27          46.36          34.24          5.907         -8.053         -106.4          74.54         -111.8          118.4          28.96
    0.9507               -52.9           24.4          45.68          33.91           6.21          -7.93         -108.0          75.42         -113.4          118.9          28.37
     0.967              -53.49           24.5          45.14          33.65          6.449         -7.834         -109.3          76.12         -114.6          119.3          27.91
